name Walk4.mot
datacolumns 19
datarows 22
range 2.39500000 2.50000000
endheader

                time	   L_ground_force_vx	   L_ground_force_vy	   L_ground_force_vz	   L_ground_force_px	   L_ground_force_py	   L_ground_force_pz	   R_ground_force_vx	   R_ground_force_vy	   R_ground_force_vz	   R_ground_force_px	   R_ground_force_py	   R_ground_force_pz	   L_ground_torque_x	   L_ground_torque_y	   L_ground_torque_z	   R_ground_torque_x	   R_ground_torque_y	   R_ground_torque_z	
          2.39500000	          0.00000002	          0.00000012	         -0.00000001	         -0.00000000	          0.00000000	         -0.00000000	         24.79085358	        104.10991804	          5.19981839	          0.20682938	          0.00000000	          0.02923565	          0.00000000	          0.00000000	          0.00000000	          0.00000000	         -5.65866334	          0.00000000	
          2.40000000	          0.00000000	          0.00000005	         -0.00000001	         -0.00000000	          0.00000000	         -0.00000000	         18.27527221	         74.07625560	          4.89906898	          0.18062195	          0.00000000	          0.02539703	          0.00000000	         -0.00000000	          0.00000000	          0.00000000	         -4.32685113	          0.00000000	
          2.40500000	         -0.00000001	         -0.00000000	         -0.00000000	         -0.00000000	          0.00000000	         -0.00000000	         12.67536075	         49.09049209	          4.33401636	          0.15117193	          0.00000000	          0.02117674	          0.00000000	         -0.00000000	          0.00000000	          0.00000000	         -3.13987903	          0.00000000	
          2.41000000	         -0.00000002	         -0.00000004	         -0.00000000	         -0.00000000	          0.00000000	         -0.00000000	          8.08374321	         29.19935856	          3.63045468	          0.12056675	          0.00000000	          0.01683274	          0.00000000	         -0.00000000	          0.00000000	          0.00000000	         -2.13130033	          0.00000000	
          2.41500000	         -0.00000002	         -0.00000005	         -0.00000000	         -0.00000000	          0.00000000	         -0.00000000	          4.49990977	         14.13432122	          2.89215709	          0.09140655	          0.00000000	          0.01271603	          0.00000000	         -0.00000000	          0.00000000	          0.00000000	         -1.31596301	          0.00000000	
          2.42000000	         -0.00000002	         -0.00000006	          0.00000000	         -0.00000000	          0.00000000	         -0.00000000	          1.84577835	          3.35555071	          2.18996649	          0.06547752	          0.00000000	          0.00907037	          0.00000000	         -0.00000000	          0.00000000	          0.00000000	         -0.68902622	          0.00000000	
          2.42500000	         -0.00000002	         -0.00000006	          0.00000000	         -0.00000000	          0.00000000	         -0.00000000	         -0.00224346	         -3.82204951	          1.56646540	          0.04367126	          0.00000000	          0.00601513	          0.00000000	         -0.00000000	          0.00000000	          0.00000000	         -0.23249015	          0.00000000	
          2.43000000	         -0.00000002	         -0.00000006	          0.00000000	          0.00000000	          0.00000000	         -0.00000000	         -1.18716661	         -8.12262758	          1.04273775	          0.02623346	          0.00000000	          0.00358013	          0.00000000	         -0.00000000	          0.00000000	          0.00000000	          0.07866474	          0.00000000	
          2.43500000	         -0.00000002	         -0.00000005	          0.00000000	          0.00000000	          0.00000000	          0.00000000	         -1.85314436	        -10.23810335	          0.62441341	          0.01297619	          0.00000000	          0.00173547	          0.00000000	         -0.00000000	          0.00000000	          0.00000000	          0.27198091	          0.00000000	
          2.44000000	         -0.00000001	         -0.00000004	          0.00000000	          0.00000000	          0.00000000	          0.00000000	         -2.13366167	        -10.78500681	          0.30676656	          0.00344829	          0.00000000	          0.00041528	          0.00000000	         -0.00000000	          0.00000000	          0.00000000	          0.37444043	          0.00000000	
          2.44500000	         -0.00000001	         -0.00000003	          0.00000000	          0.00000000	          0.00000000	          0.00000000	         -2.14480515	        -10.28276176	          0.07880427	         -0.00293448	          0.00000000	         -0.00046419	          0.00000000	         -0.00000000	          0.00000000	          0.00000000	          0.41053202	          0.00000000	
          2.45000000	         -0.00000001	         -0.00000002	          0.00000000	          0.00000000	          0.00000000	          0.00000000	         -1.98232309	         -9.14743962	         -0.07361600	         -0.00679554	          0.00000000	         -0.00099146	          0.00000000	         -0.00000000	          0.00000000	          0.00000000	          0.40120874	          0.00000000	
          2.45500000	         -0.00000000	         -0.00000002	          0.00000000	          0.00000000	          0.00000000	          0.00000000	         -1.72134871	         -7.69592765	         -0.16553803	         -0.00873412	          0.00000000	         -0.00125117	          0.00000000	         -0.00000000	          0.00000000	          0.00000000	          0.36349914	          0.00000000	
          2.46000000	         -0.00000000	         -0.00000001	          0.00000000	          0.00000000	          0.00000000	          0.00000000	         -1.41785302	         -6.15644632	         -0.21139379	         -0.00928654	          0.00000000	         -0.00131877	          0.00000000	         -0.00000000	          0.00000000	          0.00000000	          0.31056832	          0.00000000	
          2.46500000	         -0.00000000	         -0.00000001	          0.00000000	          0.00000000	          0.00000000	          0.00000000	         -1.11109209	         -4.68230631	         -0.22408151	         -0.00890633	          0.00000000	         -0.00125782	          0.00000000	         -0.00000000	          0.00000000	          0.00000000	          0.25206261	          0.00000000	
          2.47000000	         -0.00000000	         -0.00000000	          0.00000000	          0.00000000	          0.00000000	          0.00000000	         -0.82649829	         -3.36665506	         -0.21449576	         -0.00795813	          0.00000000	         -0.00111926	          0.00000000	          0.00000000	          0.00000000	          0.00000000	          0.19460893	          0.00000000	
          2.47500000	          0.00000000	         -0.00000000	          0.00000000	          0.00000000	          0.00000000	          0.00000000	         -0.57862778	         -2.25669169	         -0.19138458	         -0.00672068	          0.00000000	         -0.00094188	          0.00000000	          0.00000000	          0.00000000	          0.00000000	          0.14237378	          0.00000000	
          2.48000000	          0.00000000	          0.00000000	          0.00000000	          0.00000000	          0.00000000	          0.00000000	         -0.37391077	         -1.36641666	         -0.16142763	         -0.00539560	          0.00000000	         -0.00075364	          0.00000000	          0.00000000	          0.00000000	          0.00000000	          0.09761635	          0.00000000	
          2.48500000	          0.00000000	          0.00000000	          0.00000000	          0.00000000	          0.00000000	          0.00000000	         -0.21305789	         -0.68743349	         -0.12944984	         -0.00411913	          0.00000000	         -0.00057332	          0.00000000	          0.00000000	          0.00000000	          0.00000000	          0.06119400	          0.00000000	
          2.49000000	          0.00000000	          0.00000000	         -0.00000000	          0.00000000	          0.00000000	          0.00000000	         -0.09305575	         -0.19764706	         -0.09870518	         -0.00297477	          0.00000000	         -0.00041234	          0.00000000	          0.00000000	          0.00000000	          0.00000000	          0.03299735	          0.00000000	
          2.49500000	          0.00000000	          0.00000000	         -0.00000000	          0.00000000	          0.00000000	          0.00000000	         -0.00874112	          0.13207498	         -0.07118285	         -0.00200565	          0.00000000	         -0.00027650	          0.00000000	          0.00000000	          0.00000000	          0.00000000	          0.01230569	          0.00000000	
          2.50000000	          0.00000000	          0.00000000	         -0.00000000	         -0.00000000	          0.00000000	          0.00000000	          0.04601953	          0.33307380	         -0.04790360	         -0.00122555	          0.00000000	         -0.00016752	          0.00000000	          0.00000000	          0.00000000	          0.00000000	         -0.00193670	          0.00000000	
